<svg xmlns="http://www.w3.org/2000/svg" viewBox="0 0 435.49 435.49"><defs><style>.cls-1{fill:#eb5b62;}.cls-2{fill:#fff;}</style></defs><title>airbnb head logo</title><g id="Layer_2" data-name="Layer 2"><g id="Layer_1-2" data-name="Layer 1"><rect class="cls-1" width="435.49" height="435.49" rx="217.74" ry="217.74"/><path class="cls-2" d="M218,316.49c-8.78,7.21-16.95,15-26.18,21.28C172,351.13,150.85,358,127.54,346.61c-30.89-15.15-42.59-49.89-27-83.49,17.69-38.18,36.38-75.91,54.94-113.68,7-14.24,14.72-28.12,22.33-42,8.82-16.13,22.92-24.58,41-24.29,17.89.29,32.34,8.32,40.57,25q37.39,75.58,74.41,151.34a75.31,75.31,0,0,1,6.75,48c-5.56,29.52-41.63,57.19-81.53,38.56a139.14,139.14,0,0,1-22.22-13.25C230,327.85,224.11,321.87,218,316.49Zm13.71-14.76C244,314.33,257.58,326.47,276.41,331c22.17,5.33,44.53-10.32,44.72-33.06.09-10.85-2-22.7-6.65-32.45-23-48.74-47.33-96.89-71-145.34-5.14-10.54-12.8-17.16-24.69-17.32-12.28-.16-20.21,6.55-25.62,17.32-18.75,37.36-38,74.48-56.58,111.92-7.68,15.47-15.39,31.12-20.82,47.44-5.32,16-2.41,31.55,11.27,43.32s29.12,12.81,44.18,4c12-7,22.75-16.2,33.62-24.12-8.55-13.77-16.59-25.12-22.93-37.35-7.87-15.17-13.52-31.21-9.85-48.93a43.81,43.81,0,0,1,41.75-35.09c25.87-.78,43.46,10.52,48.65,32.4,3.87,16.3,1,32.35-6.63,47C248.74,274.54,240.13,287.54,231.67,301.73Zm-13.9-17c13.7-16.91,24.29-34,26.69-54.7,1.12-9.65-1.08-19.54-10.55-24.84-10.44-5.84-21.75-5.93-32.14.12-8.81,5.13-12.2,14.23-11,23.85C193.47,250,203.8,267.52,217.76,284.68Z"/></g></g></svg>