<?xml version="1.0" encoding="utf-8"?>
<!-- Generator: Adobe Illustrator 21.0.2, SVG Export Plug-In . SVG Version: 6.00 Build 0)  -->
<svg version="1.1" id="Layer_1" xmlns="http://www.w3.org/2000/svg" xmlns:xlink="http://www.w3.org/1999/xlink" x="0px" y="0px"
	 viewBox="0 0 111.8 89.6" style="enable-background:new 0 0 111.8 89.6;" xml:space="preserve">
<style type="text/css">
	.st0{fill:#122E3F;}
</style>
<title>checkmark-iconcheckmark-icon</title>
<g id="Layer_2">
	<g id="Layer_1-2">
		<path class="st0" d="M31.4,86.7L3.5,61.8C-0.5,58.3-1.2,52.3,2,48c3.4-4.4,9.7-5.1,14-1.8c0.2,0.1,0.3,0.3,0.5,0.4l19,17
			c1.5,1.3,3.8,1.2,5.1-0.3L94.1,3.5c3.5-4.1,9.6-4.7,13.9-1.5c4.4,3.4,5.1,9.7,1.8,14c-0.1,0.2-0.3,0.3-0.4,0.5L47.6,85.7
			C43.4,90.5,36.1,90.9,31.4,86.7z"/>
	</g>
</g>
</svg>
