<svg xmlns="http://www.w3.org/2000/svg" viewBox="0 0 285.5 291.5"><defs><style>.cls-1{fill:#fff;}</style></defs><title>pdf-download</title><g id="Layer_2" data-name="Layer 2"><g id="Layer_1-2" data-name="Layer 1"><path class="cls-1" d="M204.67,0h-136A40.89,40.89,0,0,0,28.12,36H43.29A25.87,25.87,0,0,1,68.67,15h136A25.86,25.86,0,0,1,230.5,40.83v85.33h15V40.83A40.87,40.87,0,0,0,204.67,0Zm-35,254h-101a25.87,25.87,0,0,1-25.84-25.84V153.5h-15v74.66A40.89,40.89,0,0,0,68.67,269H183.34Z"/><path class="cls-1" d="M285.5,219.66,220.17,291.5,199.6,269l-13.71-15L154.5,219.66h29.17V144.12a6,6,0,0,1,6-6h60.76a6,6,0,0,1,6,6v75.54Z"/><path class="cls-1" d="M152,45H9.33A9.33,9.33,0,0,0,0,54.33v80.83a9.34,9.34,0,0,0,9.33,9.34H152a9.34,9.34,0,0,0,9.33-9.34V54.33A9.33,9.33,0,0,0,152,45ZM48.4,98.48q-5.82,5.05-15.76,5.05H27.38l-.27,21.94-14,0V64.2H34.43c6.62,0,11.75,2.07,15.63,5.45s4.17,7.42,4.17,12.92S52.29,95.12,48.4,98.48ZM105,99.77c-1.17,4.85-1.63,11.1-6,16.68-1.21,1.63-5.65,9-17.12,9H61.4V64.2H81.84c6.57,0,12.11,3.23,16.53,7.51C102.5,76.08,105,83,105,89.72ZM150,75H127.25V90.22H145V101H126.94v25.31l-13.5-.83V64.2H150Z"/><path class="cls-1" d="M27,92.33V74.08h5.38a7.58,7.58,0,0,1,7.43,5.59,14.56,14.56,0,0,1-.16,7,7.7,7.7,0,0,1-7.47,5.67Z"/><path class="cls-1" d="M74.63,74.58V115H77.4a11.48,11.48,0,0,0,10.1-5.87c4.32-7.91,4.3-21.64-.46-29.39a10.94,10.94,0,0,0-9.35-5.12Z"/></g></g></svg>