<svg xmlns="http://www.w3.org/2000/svg" viewBox="0 0 285.5 291.5"><defs><style>.cls-1{fill:#fff;}</style></defs><title>xls-download</title><g id="Layer_2" data-name="Layer 2"><g id="Layer_1-2" data-name="Layer 1"><path class="cls-1" d="M204.67,0h-136A40.89,40.89,0,0,0,28.12,36H43.29A25.87,25.87,0,0,1,68.67,15h136A25.86,25.86,0,0,1,230.5,40.83v85.33h15V40.83A40.87,40.87,0,0,0,204.67,0Zm-35,254h-101a25.87,25.87,0,0,1-25.84-25.84V153.5h-15v74.66A40.89,40.89,0,0,0,68.67,269H183.34Z"/><path class="cls-1" d="M285.5,219.66,220.17,291.5,199.6,269l-13.71-15L154.5,219.66h29.17V144.12a6,6,0,0,1,6-6h60.76a6,6,0,0,1,6,6v75.54Z"/><path class="cls-1" d="M152,45H9.33A9.33,9.33,0,0,0,0,54.33v80.83a9.34,9.34,0,0,0,9.33,9.34H152a9.34,9.34,0,0,0,9.33-9.34V54.33A9.33,9.33,0,0,0,152,45ZM45.8,121.89l-9.25-18.68-9.24,18.68H12.77L28.72,94.53,13.18,67.61H27.61l8.8,18.3,8.94-18.3H59.89L44.35,94.53l16.74,27.36Zm55.4,0H65.3V67.61H77.9V112.2h23.3ZM143,118.63q-5.59,4.05-14.84,4t-15.6-4.35q-6.39-4.34-6.21-13.66l.08-.23h12.26q0,4.74,2.33,6.73t7.14,2q4,0,5.89-1.57a5,5,0,0,0,1.94-4.1,5.39,5.39,0,0,0-1.9-4.45,24.26,24.26,0,0,0-6.9-3.3q-10.09-3.29-15-7t-4.91-10.69A13.1,13.1,0,0,1,113,71q5.7-4.21,14.5-4.22,9.29,0,14.95,4.35t5.48,12.25l-.07.22H135.58q0-3.84-2.09-5.57t-6.3-1.74a8,8,0,0,0-5.4,1.68,5.22,5.22,0,0,0-2,4.14,4.47,4.47,0,0,0,2,3.82,39.37,39.37,0,0,0,7.59,3.6q9.43,2.79,14.28,6.82t4.84,11A13.05,13.05,0,0,1,143,118.63Z"/></g></g></svg>